<svg width="18" height="18" viewBox="0 0 18 18" fill="none" xmlns="http://www.w3.org/2000/svg">
<path d="M13.7157 0.457611L8.74384 5.42946L3.772 0.457611C3.16191 -0.152476 2.17237 -0.152476 1.56229 0.457611L0.457432 1.56247C-0.152655 2.17255 -0.152655 3.16209 0.457432 3.77217L5.42928 8.74402L0.457432 13.7159C-0.152655 14.3259 -0.152655 15.3155 0.457432 15.9256L1.56229 17.0304C2.17237 17.6405 3.16191 17.6405 3.772 17.0304L8.74384 12.0586L13.7157 17.0304C14.3258 17.6405 15.3153 17.6405 15.9254 17.0304L17.0302 15.9256C17.6403 15.3155 17.6403 14.3259 17.0302 13.7159L12.0584 8.74402L17.0302 3.77217C17.6403 3.16209 17.6403 2.17255 17.0302 1.56247L15.9254 0.457611C15.3153 -0.152476 14.3258 -0.152476 13.7157 0.457611Z" fill="#007AFF"/>
</svg>
